%TF.GenerationSoftware,KiCad,Pcbnew,5.1.8-5.1.8*%
%TF.CreationDate,2020-11-21T17:42:12+00:00*%
%TF.ProjectId,m78,6d37382e-6b69-4636-9164-5f7063625858,rev?*%
%TF.SameCoordinates,Original*%
%TF.FileFunction,Copper,L1,Top*%
%TF.FilePolarity,Positive*%
%FSLAX46Y46*%
G04 Gerber Fmt 4.6, Leading zero omitted, Abs format (unit mm)*
G04 Created by KiCad (PCBNEW 5.1.8-5.1.8) date 2020-11-21 17:42:12*
%MOMM*%
%LPD*%
G01*
G04 APERTURE LIST*
%TA.AperFunction,ComponentPad*%
%ADD10R,1.600000X1.600000*%
%TD*%
%TA.AperFunction,ComponentPad*%
%ADD11O,1.600000X1.600000*%
%TD*%
%TA.AperFunction,ComponentPad*%
%ADD12C,2.200000*%
%TD*%
%TA.AperFunction,ComponentPad*%
%ADD13C,1.600000*%
%TD*%
%TA.AperFunction,ComponentPad*%
%ADD14C,1.800000*%
%TD*%
%TA.AperFunction,ComponentPad*%
%ADD15R,1.800000X1.800000*%
%TD*%
%TA.AperFunction,Conductor*%
%ADD16C,0.250000*%
%TD*%
G04 APERTURE END LIST*
D10*
%TO.P,D1,1*%
%TO.N,c0*%
X24861800Y-16810000D03*
D11*
%TO.P,D1,2*%
%TO.N,Net-(D1-Pad2)*%
X24861800Y-24430000D03*
%TD*%
D10*
%TO.P,D72,1*%
%TO.N,c11*%
X229060000Y-153970000D03*
D11*
%TO.P,D72,2*%
%TO.N,Net-(D72-Pad2)*%
X229060000Y-146350000D03*
%TD*%
D10*
%TO.P,D66,1*%
%TO.N,c10*%
X210010000Y-153970000D03*
D11*
%TO.P,D66,2*%
%TO.N,Net-(D66-Pad2)*%
X210010000Y-146350000D03*
%TD*%
D10*
%TO.P,D60,1*%
%TO.N,c9*%
X190960000Y-153970000D03*
D11*
%TO.P,D60,2*%
%TO.N,Net-(D60-Pad2)*%
X190960000Y-146350000D03*
%TD*%
D10*
%TO.P,D54,1*%
%TO.N,c8*%
X171910000Y-153970000D03*
D11*
%TO.P,D54,2*%
%TO.N,Net-(D54-Pad2)*%
X171910000Y-146350000D03*
%TD*%
D10*
%TO.P,D48,1*%
%TO.N,c7*%
X186953000Y-25700000D03*
D11*
%TO.P,D48,2*%
%TO.N,Net-(D48-Pad2)*%
X186953000Y-33320000D03*
%TD*%
D10*
%TO.P,D42,1*%
%TO.N,c6*%
X166260000Y-19350000D03*
D11*
%TO.P,D42,2*%
%TO.N,Net-(D42-Pad2)*%
X166260000Y-26970000D03*
%TD*%
D10*
%TO.P,D36,1*%
%TO.N,c5*%
X145568000Y-23160000D03*
D11*
%TO.P,D36,2*%
%TO.N,Net-(D36-Pad2)*%
X145568000Y-30780000D03*
%TD*%
D10*
%TO.P,D30,1*%
%TO.N,c4*%
X124875000Y-25700000D03*
D11*
%TO.P,D30,2*%
%TO.N,Net-(D30-Pad2)*%
X124875000Y-33320000D03*
%TD*%
D10*
%TO.P,D24,1*%
%TO.N,c3*%
X104183000Y-23160000D03*
D11*
%TO.P,D24,2*%
%TO.N,Net-(D24-Pad2)*%
X104183000Y-30780000D03*
%TD*%
D10*
%TO.P,D18,1*%
%TO.N,c2*%
X83490400Y-21890000D03*
D11*
%TO.P,D18,2*%
%TO.N,Net-(D18-Pad2)*%
X83490400Y-29510000D03*
%TD*%
D10*
%TO.P,D12,1*%
%TO.N,c1*%
X62797900Y-19350000D03*
D11*
%TO.P,D12,2*%
%TO.N,Net-(D12-Pad2)*%
X62797900Y-26970000D03*
%TD*%
D10*
%TO.P,D6,1*%
%TO.N,c0*%
X42105500Y-16810000D03*
D11*
%TO.P,D6,2*%
%TO.N,Net-(D6-Pad2)*%
X42105500Y-24430000D03*
%TD*%
D10*
%TO.P,D67,1*%
%TO.N,c11*%
X221440000Y-25700000D03*
D11*
%TO.P,D67,2*%
%TO.N,Net-(D67-Pad2)*%
X221440000Y-33320000D03*
%TD*%
D10*
%TO.P,D77,1*%
%TO.N,c12*%
X248110000Y-134920000D03*
D11*
%TO.P,D77,2*%
%TO.N,Net-(D77-Pad2)*%
X248110000Y-127300000D03*
%TD*%
D10*
%TO.P,D76,1*%
%TO.N,c12*%
X248110000Y-115870000D03*
D11*
%TO.P,D76,2*%
%TO.N,Net-(D76-Pad2)*%
X248110000Y-108250000D03*
%TD*%
D10*
%TO.P,D75,1*%
%TO.N,c12*%
X248110000Y-96820000D03*
D11*
%TO.P,D75,2*%
%TO.N,Net-(D75-Pad2)*%
X248110000Y-89200000D03*
%TD*%
D10*
%TO.P,D74,1*%
%TO.N,c12*%
X248110000Y-77770000D03*
D11*
%TO.P,D74,2*%
%TO.N,Net-(D74-Pad2)*%
X248110000Y-70150000D03*
%TD*%
D10*
%TO.P,D73,1*%
%TO.N,c12*%
X248110000Y-58720000D03*
D11*
%TO.P,D73,2*%
%TO.N,Net-(D73-Pad2)*%
X248110000Y-51100000D03*
%TD*%
D10*
%TO.P,D71,1*%
%TO.N,c11*%
X229060000Y-134920000D03*
D11*
%TO.P,D71,2*%
%TO.N,Net-(D71-Pad2)*%
X229060000Y-127300000D03*
%TD*%
D10*
%TO.P,D70,1*%
%TO.N,c11*%
X229060000Y-115870000D03*
D11*
%TO.P,D70,2*%
%TO.N,Net-(D70-Pad2)*%
X229060000Y-108250000D03*
%TD*%
D10*
%TO.P,D69,1*%
%TO.N,c11*%
X229060000Y-96820000D03*
D11*
%TO.P,D69,2*%
%TO.N,Net-(D69-Pad2)*%
X229060000Y-89200000D03*
%TD*%
D10*
%TO.P,D68,1*%
%TO.N,c11*%
X229060000Y-77770000D03*
D11*
%TO.P,D68,2*%
%TO.N,Net-(D68-Pad2)*%
X229060000Y-70150000D03*
%TD*%
D10*
%TO.P,D65,1*%
%TO.N,c10*%
X210010000Y-134920000D03*
D11*
%TO.P,D65,2*%
%TO.N,Net-(D65-Pad2)*%
X210010000Y-127300000D03*
%TD*%
D10*
%TO.P,D64,1*%
%TO.N,c10*%
X210010000Y-115870000D03*
D11*
%TO.P,D64,2*%
%TO.N,Net-(D64-Pad2)*%
X210010000Y-108250000D03*
%TD*%
D10*
%TO.P,D63,1*%
%TO.N,c10*%
X210010000Y-96820000D03*
D11*
%TO.P,D63,2*%
%TO.N,Net-(D63-Pad2)*%
X210010000Y-89200000D03*
%TD*%
D10*
%TO.P,D62,1*%
%TO.N,c10*%
X214542000Y-25700000D03*
D11*
%TO.P,D62,2*%
%TO.N,Net-(D62-Pad2)*%
X214542000Y-33320000D03*
%TD*%
D10*
%TO.P,D61,1*%
%TO.N,c10*%
X217991000Y-25700000D03*
D11*
%TO.P,D61,2*%
%TO.N,Net-(D61-Pad2)*%
X217991000Y-33320000D03*
%TD*%
D10*
%TO.P,D59,1*%
%TO.N,c9*%
X190960000Y-134920000D03*
D11*
%TO.P,D59,2*%
%TO.N,Net-(D59-Pad2)*%
X190960000Y-127300000D03*
%TD*%
D10*
%TO.P,D58,1*%
%TO.N,c9*%
X190960000Y-115870000D03*
D11*
%TO.P,D58,2*%
%TO.N,Net-(D58-Pad2)*%
X190960000Y-108250000D03*
%TD*%
D10*
%TO.P,D57,1*%
%TO.N,c9*%
X211280000Y-25700000D03*
D11*
%TO.P,D57,2*%
%TO.N,Net-(D57-Pad2)*%
X211280000Y-33320000D03*
%TD*%
D10*
%TO.P,D56,1*%
%TO.N,c9*%
X207645000Y-25700000D03*
D11*
%TO.P,D56,2*%
%TO.N,Net-(D56-Pad2)*%
X207645000Y-33320000D03*
%TD*%
D10*
%TO.P,D55,1*%
%TO.N,c9*%
X204196000Y-25700000D03*
D11*
%TO.P,D55,2*%
%TO.N,Net-(D55-Pad2)*%
X204196000Y-33320000D03*
%TD*%
D10*
%TO.P,D53,1*%
%TO.N,c8*%
X171910000Y-134920000D03*
D11*
%TO.P,D53,2*%
%TO.N,Net-(D53-Pad2)*%
X171910000Y-127300000D03*
%TD*%
D10*
%TO.P,D52,1*%
%TO.N,c8*%
X200748000Y-25700000D03*
D11*
%TO.P,D52,2*%
%TO.N,Net-(D52-Pad2)*%
X200748000Y-33320000D03*
%TD*%
D10*
%TO.P,D51,1*%
%TO.N,c8*%
X197299000Y-25700000D03*
D11*
%TO.P,D51,2*%
%TO.N,Net-(D51-Pad2)*%
X197299000Y-33320000D03*
%TD*%
D10*
%TO.P,D50,1*%
%TO.N,c8*%
X193850000Y-25700000D03*
D11*
%TO.P,D50,2*%
%TO.N,Net-(D50-Pad2)*%
X193850000Y-33320000D03*
%TD*%
D10*
%TO.P,D49,1*%
%TO.N,c8*%
X190401000Y-25700000D03*
D11*
%TO.P,D49,2*%
%TO.N,Net-(D49-Pad2)*%
X190401000Y-33320000D03*
%TD*%
D10*
%TO.P,D47,1*%
%TO.N,c7*%
X183504000Y-25700000D03*
D11*
%TO.P,D47,2*%
%TO.N,Net-(D47-Pad2)*%
X183504000Y-33320000D03*
%TD*%
D10*
%TO.P,D46,1*%
%TO.N,c7*%
X180055000Y-25700000D03*
D11*
%TO.P,D46,2*%
%TO.N,Net-(D46-Pad2)*%
X180055000Y-33320000D03*
%TD*%
D10*
%TO.P,D45,1*%
%TO.N,c7*%
X176606000Y-25700000D03*
D11*
%TO.P,D45,2*%
%TO.N,Net-(D45-Pad2)*%
X176606000Y-33320000D03*
%TD*%
D10*
%TO.P,D44,1*%
%TO.N,c7*%
X173158000Y-25700000D03*
D11*
%TO.P,D44,2*%
%TO.N,Net-(D44-Pad2)*%
X173158000Y-33320000D03*
%TD*%
D10*
%TO.P,D43,1*%
%TO.N,c7*%
X169709000Y-25700000D03*
D11*
%TO.P,D43,2*%
%TO.N,Net-(D43-Pad2)*%
X169709000Y-33320000D03*
%TD*%
D10*
%TO.P,D41,1*%
%TO.N,c6*%
X162811000Y-19350000D03*
D11*
%TO.P,D41,2*%
%TO.N,Net-(D41-Pad2)*%
X162811000Y-26970000D03*
%TD*%
D10*
%TO.P,D40,1*%
%TO.N,c6*%
X159363000Y-19350000D03*
D11*
%TO.P,D40,2*%
%TO.N,Net-(D40-Pad2)*%
X159363000Y-26970000D03*
%TD*%
D10*
%TO.P,D39,1*%
%TO.N,c6*%
X155914000Y-19350000D03*
D11*
%TO.P,D39,2*%
%TO.N,Net-(D39-Pad2)*%
X155914000Y-26970000D03*
%TD*%
D10*
%TO.P,D38,1*%
%TO.N,c6*%
X152465000Y-19350000D03*
D11*
%TO.P,D38,2*%
%TO.N,Net-(D38-Pad2)*%
X152465000Y-26970000D03*
%TD*%
D10*
%TO.P,D37,1*%
%TO.N,c6*%
X149016000Y-19350000D03*
D11*
%TO.P,D37,2*%
%TO.N,Net-(D37-Pad2)*%
X149016000Y-26970000D03*
%TD*%
D10*
%TO.P,D35,1*%
%TO.N,c5*%
X142119000Y-23160000D03*
D11*
%TO.P,D35,2*%
%TO.N,Net-(D35-Pad2)*%
X142119000Y-30780000D03*
%TD*%
D10*
%TO.P,D34,1*%
%TO.N,c5*%
X138670000Y-23160000D03*
D11*
%TO.P,D34,2*%
%TO.N,Net-(D34-Pad2)*%
X138670000Y-30780000D03*
%TD*%
D10*
%TO.P,D33,1*%
%TO.N,c5*%
X135221000Y-23160000D03*
D11*
%TO.P,D33,2*%
%TO.N,Net-(D33-Pad2)*%
X135221000Y-30780000D03*
%TD*%
D10*
%TO.P,D32,1*%
%TO.N,c5*%
X131773000Y-23160000D03*
D11*
%TO.P,D32,2*%
%TO.N,Net-(D32-Pad2)*%
X131773000Y-30780000D03*
%TD*%
D10*
%TO.P,D31,1*%
%TO.N,c5*%
X128324000Y-23160000D03*
D11*
%TO.P,D31,2*%
%TO.N,Net-(D31-Pad2)*%
X128324000Y-30780000D03*
%TD*%
D10*
%TO.P,D29,1*%
%TO.N,c4*%
X121427000Y-25700000D03*
D11*
%TO.P,D29,2*%
%TO.N,Net-(D29-Pad2)*%
X121427000Y-33320000D03*
%TD*%
D10*
%TO.P,D28,1*%
%TO.N,c4*%
X117978000Y-25700000D03*
D11*
%TO.P,D28,2*%
%TO.N,Net-(D28-Pad2)*%
X117978000Y-33320000D03*
%TD*%
D10*
%TO.P,D27,1*%
%TO.N,c4*%
X114529000Y-25700000D03*
D11*
%TO.P,D27,2*%
%TO.N,Net-(D27-Pad2)*%
X114529000Y-33320000D03*
%TD*%
D10*
%TO.P,D26,1*%
%TO.N,c4*%
X111080000Y-25700000D03*
D11*
%TO.P,D26,2*%
%TO.N,Net-(D26-Pad2)*%
X111080000Y-33320000D03*
%TD*%
D10*
%TO.P,D25,1*%
%TO.N,c4*%
X107632000Y-25700000D03*
D11*
%TO.P,D25,2*%
%TO.N,Net-(D25-Pad2)*%
X107632000Y-33320000D03*
%TD*%
D10*
%TO.P,D23,1*%
%TO.N,c3*%
X100734000Y-23160000D03*
D11*
%TO.P,D23,2*%
%TO.N,Net-(D23-Pad2)*%
X100734000Y-30780000D03*
%TD*%
D10*
%TO.P,D22,1*%
%TO.N,c3*%
X97285300Y-23160000D03*
D11*
%TO.P,D22,2*%
%TO.N,Net-(D22-Pad2)*%
X97285300Y-30780000D03*
%TD*%
D10*
%TO.P,D21,1*%
%TO.N,c3*%
X93836600Y-23160000D03*
D11*
%TO.P,D21,2*%
%TO.N,Net-(D21-Pad2)*%
X93836600Y-30780000D03*
%TD*%
D10*
%TO.P,D20,1*%
%TO.N,c3*%
X90387900Y-23160000D03*
D11*
%TO.P,D20,2*%
%TO.N,Net-(D20-Pad2)*%
X90387900Y-30780000D03*
%TD*%
D10*
%TO.P,D19,1*%
%TO.N,c3*%
X86939100Y-23160000D03*
D11*
%TO.P,D19,2*%
%TO.N,Net-(D19-Pad2)*%
X86939100Y-30780000D03*
%TD*%
D10*
%TO.P,D17,1*%
%TO.N,c2*%
X80041600Y-21890000D03*
D11*
%TO.P,D17,2*%
%TO.N,Net-(D17-Pad2)*%
X80041600Y-29510000D03*
%TD*%
D10*
%TO.P,D16,1*%
%TO.N,c2*%
X76592900Y-21890000D03*
D11*
%TO.P,D16,2*%
%TO.N,Net-(D16-Pad2)*%
X76592900Y-29510000D03*
%TD*%
D10*
%TO.P,D15,1*%
%TO.N,c2*%
X73144200Y-21890000D03*
D11*
%TO.P,D15,2*%
%TO.N,Net-(D15-Pad2)*%
X73144200Y-29510000D03*
%TD*%
D10*
%TO.P,D14,1*%
%TO.N,c2*%
X69695400Y-21890000D03*
D11*
%TO.P,D14,2*%
%TO.N,Net-(D14-Pad2)*%
X69695400Y-29510000D03*
%TD*%
D10*
%TO.P,D13,1*%
%TO.N,c2*%
X66246700Y-21890000D03*
D11*
%TO.P,D13,2*%
%TO.N,Net-(D13-Pad2)*%
X66246700Y-29510000D03*
%TD*%
D10*
%TO.P,D11,1*%
%TO.N,c1*%
X59349200Y-19350000D03*
D11*
%TO.P,D11,2*%
%TO.N,Net-(D11-Pad2)*%
X59349200Y-26970000D03*
%TD*%
D10*
%TO.P,D10,1*%
%TO.N,c1*%
X55900500Y-19350000D03*
D11*
%TO.P,D10,2*%
%TO.N,Net-(D10-Pad2)*%
X55900500Y-26970000D03*
%TD*%
D10*
%TO.P,D9,1*%
%TO.N,c1*%
X52451700Y-19350000D03*
D11*
%TO.P,D9,2*%
%TO.N,Net-(D9-Pad2)*%
X52451700Y-26970000D03*
%TD*%
D10*
%TO.P,D8,1*%
%TO.N,c1*%
X49003000Y-19350000D03*
D11*
%TO.P,D8,2*%
%TO.N,Net-(D8-Pad2)*%
X49003000Y-26970000D03*
%TD*%
D10*
%TO.P,D7,1*%
%TO.N,c1*%
X45554200Y-19350000D03*
D11*
%TO.P,D7,2*%
%TO.N,Net-(D7-Pad2)*%
X45554200Y-26970000D03*
%TD*%
D10*
%TO.P,D5,1*%
%TO.N,c0*%
X38656800Y-16810000D03*
D11*
%TO.P,D5,2*%
%TO.N,Net-(D5-Pad2)*%
X38656800Y-24430000D03*
%TD*%
D10*
%TO.P,D4,1*%
%TO.N,c0*%
X35208000Y-16810000D03*
D11*
%TO.P,D4,2*%
%TO.N,Net-(D4-Pad2)*%
X35208000Y-24430000D03*
%TD*%
D10*
%TO.P,D3,1*%
%TO.N,c0*%
X31759300Y-16810000D03*
D11*
%TO.P,D3,2*%
%TO.N,Net-(D3-Pad2)*%
X31759300Y-24430000D03*
%TD*%
D10*
%TO.P,D2,1*%
%TO.N,c0*%
X28310500Y-16810000D03*
D11*
%TO.P,D2,2*%
%TO.N,Net-(D2-Pad2)*%
X28310500Y-24430000D03*
%TD*%
%TO.P,D78,2*%
%TO.N,Net-(D78-Pad2)*%
X248110000Y-146350000D03*
D10*
%TO.P,D78,1*%
%TO.N,c12*%
X248110000Y-153970000D03*
%TD*%
D12*
%TO.P,SW78,2*%
%TO.N,Net-(D78-Pad2)*%
X252730000Y-146050000D03*
%TO.P,SW78,1*%
%TO.N,r5*%
X259080000Y-143510000D03*
%TD*%
%TO.P,SW77,2*%
%TO.N,Net-(D77-Pad2)*%
X252730000Y-127000000D03*
%TO.P,SW77,1*%
%TO.N,r4*%
X259080000Y-124460000D03*
%TD*%
%TO.P,SW76,2*%
%TO.N,Net-(D76-Pad2)*%
X252730000Y-107950000D03*
%TO.P,SW76,1*%
%TO.N,r3*%
X259080000Y-105410000D03*
%TD*%
%TO.P,SW75,2*%
%TO.N,Net-(D75-Pad2)*%
X252730000Y-88900000D03*
%TO.P,SW75,1*%
%TO.N,r2*%
X259080000Y-86360000D03*
%TD*%
%TO.P,SW74,2*%
%TO.N,Net-(D74-Pad2)*%
X252730000Y-69850000D03*
%TO.P,SW74,1*%
%TO.N,r1*%
X259080000Y-67310000D03*
%TD*%
%TO.P,SW73,2*%
%TO.N,Net-(D73-Pad2)*%
X252730000Y-50800000D03*
%TO.P,SW73,1*%
%TO.N,r0*%
X259080000Y-48260000D03*
%TD*%
%TO.P,SW72,2*%
%TO.N,Net-(D72-Pad2)*%
X233680000Y-146050000D03*
%TO.P,SW72,1*%
%TO.N,r5*%
X240030000Y-143510000D03*
%TD*%
%TO.P,SW71,2*%
%TO.N,Net-(D71-Pad2)*%
X233680000Y-127000000D03*
%TO.P,SW71,1*%
%TO.N,r4*%
X240030000Y-124460000D03*
%TD*%
%TO.P,SW70,2*%
%TO.N,Net-(D70-Pad2)*%
X233680000Y-107950000D03*
%TO.P,SW70,1*%
%TO.N,r3*%
X240030000Y-105410000D03*
%TD*%
%TO.P,SW69,2*%
%TO.N,Net-(D69-Pad2)*%
X233680000Y-88900000D03*
%TO.P,SW69,1*%
%TO.N,r2*%
X240030000Y-86360000D03*
%TD*%
%TO.P,SW68,2*%
%TO.N,Net-(D68-Pad2)*%
X233680000Y-69850000D03*
%TO.P,SW68,1*%
%TO.N,r1*%
X240030000Y-67310000D03*
%TD*%
%TO.P,SW67,2*%
%TO.N,Net-(D67-Pad2)*%
X233680000Y-50800000D03*
%TO.P,SW67,1*%
%TO.N,r0*%
X240030000Y-48260000D03*
%TD*%
%TO.P,SW66,2*%
%TO.N,Net-(D66-Pad2)*%
X214630000Y-146050000D03*
%TO.P,SW66,1*%
%TO.N,r5*%
X220980000Y-143510000D03*
%TD*%
%TO.P,SW65,2*%
%TO.N,Net-(D65-Pad2)*%
X214630000Y-127000000D03*
%TO.P,SW65,1*%
%TO.N,r4*%
X220980000Y-124460000D03*
%TD*%
%TO.P,SW64,2*%
%TO.N,Net-(D64-Pad2)*%
X214630000Y-107950000D03*
%TO.P,SW64,1*%
%TO.N,r3*%
X220980000Y-105410000D03*
%TD*%
%TO.P,SW63,2*%
%TO.N,Net-(D63-Pad2)*%
X214630000Y-88900000D03*
%TO.P,SW63,1*%
%TO.N,r2*%
X220980000Y-86360000D03*
%TD*%
%TO.P,SW62,2*%
%TO.N,Net-(D62-Pad2)*%
X214630000Y-69850000D03*
%TO.P,SW62,1*%
%TO.N,r1*%
X220980000Y-67310000D03*
%TD*%
%TO.P,SW61,2*%
%TO.N,Net-(D61-Pad2)*%
X214630000Y-50800000D03*
%TO.P,SW61,1*%
%TO.N,r0*%
X220980000Y-48260000D03*
%TD*%
%TO.P,SW60,2*%
%TO.N,Net-(D60-Pad2)*%
X195580000Y-146050000D03*
%TO.P,SW60,1*%
%TO.N,r5*%
X201930000Y-143510000D03*
%TD*%
%TO.P,SW59,2*%
%TO.N,Net-(D59-Pad2)*%
X195580000Y-127000000D03*
%TO.P,SW59,1*%
%TO.N,r4*%
X201930000Y-124460000D03*
%TD*%
%TO.P,SW58,2*%
%TO.N,Net-(D58-Pad2)*%
X195580000Y-107950000D03*
%TO.P,SW58,1*%
%TO.N,r3*%
X201930000Y-105410000D03*
%TD*%
%TO.P,SW57,2*%
%TO.N,Net-(D57-Pad2)*%
X195580000Y-88900000D03*
%TO.P,SW57,1*%
%TO.N,r2*%
X201930000Y-86360000D03*
%TD*%
%TO.P,SW56,2*%
%TO.N,Net-(D56-Pad2)*%
X195580000Y-69850000D03*
%TO.P,SW56,1*%
%TO.N,r1*%
X201930000Y-67310000D03*
%TD*%
%TO.P,SW55,2*%
%TO.N,Net-(D55-Pad2)*%
X195580000Y-50800000D03*
%TO.P,SW55,1*%
%TO.N,r0*%
X201930000Y-48260000D03*
%TD*%
%TO.P,SW54,2*%
%TO.N,Net-(D54-Pad2)*%
X176530000Y-146050000D03*
%TO.P,SW54,1*%
%TO.N,r5*%
X182880000Y-143510000D03*
%TD*%
%TO.P,SW53,2*%
%TO.N,Net-(D53-Pad2)*%
X176530000Y-127000000D03*
%TO.P,SW53,1*%
%TO.N,r4*%
X182880000Y-124460000D03*
%TD*%
%TO.P,SW52,2*%
%TO.N,Net-(D52-Pad2)*%
X176530000Y-107950000D03*
%TO.P,SW52,1*%
%TO.N,r3*%
X182880000Y-105410000D03*
%TD*%
%TO.P,SW51,2*%
%TO.N,Net-(D51-Pad2)*%
X176530000Y-88900000D03*
%TO.P,SW51,1*%
%TO.N,r2*%
X182880000Y-86360000D03*
%TD*%
%TO.P,SW50,2*%
%TO.N,Net-(D50-Pad2)*%
X176530000Y-69850000D03*
%TO.P,SW50,1*%
%TO.N,r1*%
X182880000Y-67310000D03*
%TD*%
%TO.P,SW49,2*%
%TO.N,Net-(D49-Pad2)*%
X176530000Y-50800000D03*
%TO.P,SW49,1*%
%TO.N,r0*%
X182880000Y-48260000D03*
%TD*%
%TO.P,SW48,2*%
%TO.N,Net-(D48-Pad2)*%
X157480000Y-146050000D03*
%TO.P,SW48,1*%
%TO.N,r5*%
X163830000Y-143510000D03*
%TD*%
%TO.P,SW47,2*%
%TO.N,Net-(D47-Pad2)*%
X157480000Y-127000000D03*
%TO.P,SW47,1*%
%TO.N,r4*%
X163830000Y-124460000D03*
%TD*%
%TO.P,SW46,2*%
%TO.N,Net-(D46-Pad2)*%
X157480000Y-107950000D03*
%TO.P,SW46,1*%
%TO.N,r3*%
X163830000Y-105410000D03*
%TD*%
%TO.P,SW45,2*%
%TO.N,Net-(D45-Pad2)*%
X157480000Y-88900000D03*
%TO.P,SW45,1*%
%TO.N,r2*%
X163830000Y-86360000D03*
%TD*%
%TO.P,SW44,2*%
%TO.N,Net-(D44-Pad2)*%
X157480000Y-69850000D03*
%TO.P,SW44,1*%
%TO.N,r1*%
X163830000Y-67310000D03*
%TD*%
%TO.P,SW43,2*%
%TO.N,Net-(D43-Pad2)*%
X157480000Y-50800000D03*
%TO.P,SW43,1*%
%TO.N,r0*%
X163830000Y-48260000D03*
%TD*%
%TO.P,SW42,2*%
%TO.N,Net-(D42-Pad2)*%
X138430000Y-146050000D03*
%TO.P,SW42,1*%
%TO.N,r5*%
X144780000Y-143510000D03*
%TD*%
%TO.P,SW41,2*%
%TO.N,Net-(D41-Pad2)*%
X138430000Y-127000000D03*
%TO.P,SW41,1*%
%TO.N,r4*%
X144780000Y-124460000D03*
%TD*%
%TO.P,SW40,2*%
%TO.N,Net-(D40-Pad2)*%
X138430000Y-107950000D03*
%TO.P,SW40,1*%
%TO.N,r3*%
X144780000Y-105410000D03*
%TD*%
%TO.P,SW39,2*%
%TO.N,Net-(D39-Pad2)*%
X138430000Y-88900000D03*
%TO.P,SW39,1*%
%TO.N,r2*%
X144780000Y-86360000D03*
%TD*%
%TO.P,SW38,2*%
%TO.N,Net-(D38-Pad2)*%
X138430000Y-69850000D03*
%TO.P,SW38,1*%
%TO.N,r1*%
X144780000Y-67310000D03*
%TD*%
%TO.P,SW37,2*%
%TO.N,Net-(D37-Pad2)*%
X138430000Y-50800000D03*
%TO.P,SW37,1*%
%TO.N,r0*%
X144780000Y-48260000D03*
%TD*%
%TO.P,SW36,2*%
%TO.N,Net-(D36-Pad2)*%
X119380000Y-146050000D03*
%TO.P,SW36,1*%
%TO.N,r5*%
X125730000Y-143510000D03*
%TD*%
%TO.P,SW35,2*%
%TO.N,Net-(D35-Pad2)*%
X119380000Y-127000000D03*
%TO.P,SW35,1*%
%TO.N,r4*%
X125730000Y-124460000D03*
%TD*%
%TO.P,SW34,2*%
%TO.N,Net-(D34-Pad2)*%
X119380000Y-107950000D03*
%TO.P,SW34,1*%
%TO.N,r3*%
X125730000Y-105410000D03*
%TD*%
%TO.P,SW33,2*%
%TO.N,Net-(D33-Pad2)*%
X119380000Y-88900000D03*
%TO.P,SW33,1*%
%TO.N,r2*%
X125730000Y-86360000D03*
%TD*%
%TO.P,SW32,2*%
%TO.N,Net-(D32-Pad2)*%
X119380000Y-69850000D03*
%TO.P,SW32,1*%
%TO.N,r1*%
X125730000Y-67310000D03*
%TD*%
%TO.P,SW31,2*%
%TO.N,Net-(D31-Pad2)*%
X119380000Y-50800000D03*
%TO.P,SW31,1*%
%TO.N,r0*%
X125730000Y-48260000D03*
%TD*%
%TO.P,SW30,2*%
%TO.N,Net-(D30-Pad2)*%
X100330000Y-146050000D03*
%TO.P,SW30,1*%
%TO.N,r5*%
X106680000Y-143510000D03*
%TD*%
%TO.P,SW29,2*%
%TO.N,Net-(D29-Pad2)*%
X100330000Y-127000000D03*
%TO.P,SW29,1*%
%TO.N,r4*%
X106680000Y-124460000D03*
%TD*%
%TO.P,SW28,2*%
%TO.N,Net-(D28-Pad2)*%
X100330000Y-107950000D03*
%TO.P,SW28,1*%
%TO.N,r3*%
X106680000Y-105410000D03*
%TD*%
%TO.P,SW27,2*%
%TO.N,Net-(D27-Pad2)*%
X100330000Y-88900000D03*
%TO.P,SW27,1*%
%TO.N,r2*%
X106680000Y-86360000D03*
%TD*%
%TO.P,SW26,2*%
%TO.N,Net-(D26-Pad2)*%
X100330000Y-69850000D03*
%TO.P,SW26,1*%
%TO.N,r1*%
X106680000Y-67310000D03*
%TD*%
%TO.P,SW25,2*%
%TO.N,Net-(D25-Pad2)*%
X100330000Y-50800000D03*
%TO.P,SW25,1*%
%TO.N,r0*%
X106680000Y-48260000D03*
%TD*%
%TO.P,SW24,2*%
%TO.N,Net-(D24-Pad2)*%
X81280000Y-146050000D03*
%TO.P,SW24,1*%
%TO.N,r5*%
X87630000Y-143510000D03*
%TD*%
%TO.P,SW23,2*%
%TO.N,Net-(D23-Pad2)*%
X81280000Y-127000000D03*
%TO.P,SW23,1*%
%TO.N,r4*%
X87630000Y-124460000D03*
%TD*%
%TO.P,SW22,2*%
%TO.N,Net-(D22-Pad2)*%
X81280000Y-107950000D03*
%TO.P,SW22,1*%
%TO.N,r3*%
X87630000Y-105410000D03*
%TD*%
%TO.P,SW21,2*%
%TO.N,Net-(D21-Pad2)*%
X81280000Y-88900000D03*
%TO.P,SW21,1*%
%TO.N,r2*%
X87630000Y-86360000D03*
%TD*%
%TO.P,SW20,2*%
%TO.N,Net-(D20-Pad2)*%
X81280000Y-69850000D03*
%TO.P,SW20,1*%
%TO.N,r1*%
X87630000Y-67310000D03*
%TD*%
%TO.P,SW19,2*%
%TO.N,Net-(D19-Pad2)*%
X81280000Y-50800000D03*
%TO.P,SW19,1*%
%TO.N,r0*%
X87630000Y-48260000D03*
%TD*%
%TO.P,SW18,2*%
%TO.N,Net-(D18-Pad2)*%
X62230000Y-146050000D03*
%TO.P,SW18,1*%
%TO.N,r5*%
X68580000Y-143510000D03*
%TD*%
%TO.P,SW17,2*%
%TO.N,Net-(D17-Pad2)*%
X62230000Y-127000000D03*
%TO.P,SW17,1*%
%TO.N,r4*%
X68580000Y-124460000D03*
%TD*%
%TO.P,SW16,2*%
%TO.N,Net-(D16-Pad2)*%
X62230000Y-107950000D03*
%TO.P,SW16,1*%
%TO.N,r3*%
X68580000Y-105410000D03*
%TD*%
%TO.P,SW15,2*%
%TO.N,Net-(D15-Pad2)*%
X62230000Y-88900000D03*
%TO.P,SW15,1*%
%TO.N,r2*%
X68580000Y-86360000D03*
%TD*%
%TO.P,SW14,2*%
%TO.N,Net-(D14-Pad2)*%
X62230000Y-69850000D03*
%TO.P,SW14,1*%
%TO.N,r1*%
X68580000Y-67310000D03*
%TD*%
%TO.P,SW13,2*%
%TO.N,Net-(D13-Pad2)*%
X62230000Y-50800000D03*
%TO.P,SW13,1*%
%TO.N,r0*%
X68580000Y-48260000D03*
%TD*%
%TO.P,SW12,2*%
%TO.N,Net-(D12-Pad2)*%
X43180000Y-146050000D03*
%TO.P,SW12,1*%
%TO.N,r5*%
X49530000Y-143510000D03*
%TD*%
%TO.P,SW11,2*%
%TO.N,Net-(D11-Pad2)*%
X43180000Y-127000000D03*
%TO.P,SW11,1*%
%TO.N,r4*%
X49530000Y-124460000D03*
%TD*%
%TO.P,SW10,2*%
%TO.N,Net-(D10-Pad2)*%
X43180000Y-107950000D03*
%TO.P,SW10,1*%
%TO.N,r3*%
X49530000Y-105410000D03*
%TD*%
%TO.P,SW9,2*%
%TO.N,Net-(D9-Pad2)*%
X43180000Y-88900000D03*
%TO.P,SW9,1*%
%TO.N,r2*%
X49530000Y-86360000D03*
%TD*%
%TO.P,SW8,2*%
%TO.N,Net-(D8-Pad2)*%
X43180000Y-69850000D03*
%TO.P,SW8,1*%
%TO.N,r1*%
X49530000Y-67310000D03*
%TD*%
%TO.P,SW7,2*%
%TO.N,Net-(D7-Pad2)*%
X43180000Y-50800000D03*
%TO.P,SW7,1*%
%TO.N,r0*%
X49530000Y-48260000D03*
%TD*%
%TO.P,SW6,2*%
%TO.N,Net-(D6-Pad2)*%
X24130000Y-146050000D03*
%TO.P,SW6,1*%
%TO.N,r5*%
X30480000Y-143510000D03*
%TD*%
%TO.P,SW5,2*%
%TO.N,Net-(D5-Pad2)*%
X24130000Y-127000000D03*
%TO.P,SW5,1*%
%TO.N,r4*%
X30480000Y-124460000D03*
%TD*%
%TO.P,SW4,2*%
%TO.N,Net-(D4-Pad2)*%
X24130000Y-107950000D03*
%TO.P,SW4,1*%
%TO.N,r3*%
X30480000Y-105410000D03*
%TD*%
%TO.P,SW3,2*%
%TO.N,Net-(D3-Pad2)*%
X24130000Y-88900000D03*
%TO.P,SW3,1*%
%TO.N,r2*%
X30480000Y-86360000D03*
%TD*%
%TO.P,SW2,2*%
%TO.N,Net-(D2-Pad2)*%
X24130000Y-69850000D03*
%TO.P,SW2,1*%
%TO.N,r1*%
X30480000Y-67310000D03*
%TD*%
%TO.P,SW1,2*%
%TO.N,Net-(D1-Pad2)*%
X24130000Y-50800000D03*
%TO.P,SW1,1*%
%TO.N,r0*%
X30480000Y-48260000D03*
%TD*%
D13*
%TO.P,U1,15*%
%TO.N,gnd*%
X232870000Y-24430000D03*
D10*
%TO.P,U1,1*%
%TO.N,N/C*%
X260810000Y-16810000D03*
D13*
%TO.P,U1,2*%
%TO.N,c7*%
X258270000Y-16810000D03*
%TO.P,U1,3*%
%TO.N,c6*%
X255730000Y-16810000D03*
%TO.P,U1,4*%
%TO.N,c5*%
X253190000Y-16810000D03*
%TO.P,U1,5*%
%TO.N,c4*%
X250650000Y-16810000D03*
%TO.P,U1,6*%
%TO.N,c3*%
X248110000Y-16810000D03*
%TO.P,U1,7*%
%TO.N,c2*%
X245570000Y-16810000D03*
%TO.P,U1,8*%
%TO.N,c0*%
X243030000Y-16810000D03*
%TO.P,U1,9*%
%TO.N,c1*%
X240490000Y-16810000D03*
%TO.P,U1,10*%
%TO.N,N/C*%
X237950000Y-16810000D03*
%TO.P,U1,11*%
X235410000Y-16810000D03*
%TO.P,U1,12*%
%TO.N,c8*%
X232870000Y-16810000D03*
%TO.P,U1,13*%
%TO.N,N/C*%
X232870000Y-19350000D03*
%TO.P,U1,14*%
%TO.N,pwr*%
X232870000Y-21890000D03*
%TO.P,U1,16*%
%TO.N,N/C*%
X232870000Y-26970000D03*
%TO.P,U1,17*%
%TO.N,f90*%
X232870000Y-29510000D03*
%TO.P,U1,18*%
%TO.N,cpp*%
X232870000Y-32050000D03*
%TO.P,U1,19*%
%TO.N,c9*%
X235410000Y-32050000D03*
%TO.P,U1,20*%
%TO.N,c10*%
X237950000Y-32050000D03*
%TO.P,U1,21*%
%TO.N,c11*%
X240490000Y-32050000D03*
%TO.P,U1,22*%
%TO.N,r5*%
X243030000Y-32050000D03*
%TO.P,U1,23*%
%TO.N,r4*%
X245570000Y-32050000D03*
%TO.P,U1,24*%
%TO.N,c12*%
X248110000Y-32050000D03*
%TO.P,U1,25*%
%TO.N,r3*%
X250650000Y-32050000D03*
%TO.P,U1,26*%
%TO.N,r1*%
X253190000Y-32050000D03*
%TO.P,U1,27*%
%TO.N,r0*%
X255730000Y-32050000D03*
%TO.P,U1,28*%
%TO.N,r2*%
X258270000Y-32050000D03*
%TO.P,U1,29*%
%TO.N,N/C*%
X260810000Y-32050000D03*
%TO.P,U1,30*%
X250650000Y-19350000D03*
%TO.P,U1,31*%
X250650000Y-29510000D03*
%TD*%
D11*
%TO.P,R3,2*%
%TO.N,pwr*%
X224790000Y-18360000D03*
D13*
%TO.P,R3,1*%
%TO.N,Net-(D81-Pad2)*%
X217170000Y-18360000D03*
%TD*%
D14*
%TO.P,D81,2*%
%TO.N,Net-(D81-Pad2)*%
X212178000Y-19110000D03*
D15*
%TO.P,D81,1*%
%TO.N,gnd*%
X209638000Y-19110000D03*
%TD*%
D11*
%TO.P,R1,2*%
%TO.N,cpp*%
X184522000Y-18360000D03*
D13*
%TO.P,R1,1*%
%TO.N,Net-(D79-Pad2)*%
X176902000Y-18360000D03*
%TD*%
D11*
%TO.P,R2,2*%
%TO.N,f90*%
X204656000Y-18360000D03*
D13*
%TO.P,R2,1*%
%TO.N,Net-(D80-Pad2)*%
X197036000Y-18360000D03*
%TD*%
D14*
%TO.P,D80,2*%
%TO.N,Net-(D80-Pad2)*%
X192044000Y-19110000D03*
D15*
%TO.P,D80,1*%
%TO.N,gnd*%
X189504000Y-19110000D03*
%TD*%
D14*
%TO.P,D79,2*%
%TO.N,Net-(D79-Pad2)*%
X171910000Y-19110000D03*
D15*
%TO.P,D79,1*%
%TO.N,gnd*%
X169370000Y-19110000D03*
%TD*%
D16*
%TO.N,Net-(D1-Pad2)*%
X24861800Y-24430000D02*
X24861800Y-25555300D01*
%TO.N,c0*%
X42105500Y-16810000D02*
X43230800Y-16810000D01*
X43230800Y-16810000D02*
X44850400Y-15190400D01*
X44850400Y-15190400D02*
X241410400Y-15190400D01*
X241410400Y-15190400D02*
X243030000Y-16810000D01*
X38656800Y-16810000D02*
X42105500Y-16810000D01*
X35208000Y-16810000D02*
X38656800Y-16810000D01*
X31759300Y-16810000D02*
X35208000Y-16810000D01*
X28310500Y-16810000D02*
X31759300Y-16810000D01*
X24861800Y-16810000D02*
X28310500Y-16810000D01*
%TO.N,c1*%
X240490000Y-16810000D02*
X239350500Y-15670500D01*
X239350500Y-15670500D02*
X67602700Y-15670500D01*
X67602700Y-15670500D02*
X63923200Y-19350000D01*
X62797900Y-19350000D02*
X63923200Y-19350000D01*
X59349200Y-19350000D02*
X62797900Y-19350000D01*
X55900500Y-19350000D02*
X59349200Y-19350000D01*
X52451700Y-19350000D02*
X55900500Y-19350000D01*
X49003000Y-19350000D02*
X52451700Y-19350000D01*
X45554200Y-19350000D02*
X49003000Y-19350000D01*
%TO.N,c2*%
X80041600Y-21890000D02*
X83490400Y-21890000D01*
X76592900Y-21890000D02*
X80041600Y-21890000D01*
X73144200Y-21890000D02*
X76592900Y-21890000D01*
X69695400Y-21890000D02*
X73144200Y-21890000D01*
X66246700Y-21890000D02*
X69695400Y-21890000D01*
%TO.N,c3*%
X104183000Y-23160000D02*
X105308300Y-23160000D01*
X105308300Y-23160000D02*
X112160200Y-16308100D01*
X112160200Y-16308100D02*
X229444000Y-16308100D01*
X229444000Y-16308100D02*
X231103300Y-17967400D01*
X231103300Y-17967400D02*
X246952600Y-17967400D01*
X246952600Y-17967400D02*
X248110000Y-16810000D01*
X100734000Y-23160000D02*
X104183000Y-23160000D01*
X97285300Y-23160000D02*
X100734000Y-23160000D01*
X93836600Y-23160000D02*
X97285300Y-23160000D01*
X90387900Y-23160000D02*
X93836600Y-23160000D01*
X86939100Y-23160000D02*
X90387900Y-23160000D01*
%TO.N,c4*%
X121427000Y-25700000D02*
X124875000Y-25700000D01*
X117978000Y-25700000D02*
X121427000Y-25700000D01*
X114529000Y-25700000D02*
X117978000Y-25700000D01*
X111080000Y-25700000D02*
X114529000Y-25700000D01*
X107632000Y-25700000D02*
X111080000Y-25700000D01*
%TO.N,c5*%
X145568000Y-23160000D02*
X176392500Y-23160000D01*
X176392500Y-23160000D02*
X182794000Y-16758500D01*
X182794000Y-16758500D02*
X228375400Y-16758500D01*
X228375400Y-16758500D02*
X232097000Y-20480100D01*
X232097000Y-20480100D02*
X246277300Y-20480100D01*
X246277300Y-20480100D02*
X248677400Y-18080000D01*
X248677400Y-18080000D02*
X251920000Y-18080000D01*
X251920000Y-18080000D02*
X253190000Y-16810000D01*
X142119000Y-23160000D02*
X145568000Y-23160000D01*
X138670000Y-23160000D02*
X142119000Y-23160000D01*
X135221000Y-23160000D02*
X138670000Y-23160000D01*
X131773000Y-23160000D02*
X135221000Y-23160000D01*
X128324000Y-23160000D02*
X131773000Y-23160000D01*
%TO.N,c6*%
X162811000Y-19350000D02*
X166260000Y-19350000D01*
X159363000Y-19350000D02*
X162811000Y-19350000D01*
X155914000Y-19350000D02*
X159363000Y-19350000D01*
X152465000Y-19350000D02*
X155914000Y-19350000D01*
X149016000Y-19350000D02*
X152465000Y-19350000D01*
%TO.N,c7*%
X186953000Y-25700000D02*
X188078300Y-25700000D01*
X188078300Y-25700000D02*
X196835400Y-34457100D01*
X196835400Y-34457100D02*
X234627000Y-34457100D01*
X234627000Y-34457100D02*
X236680000Y-32404100D01*
X236680000Y-32404100D02*
X236680000Y-31664800D01*
X236680000Y-31664800D02*
X245329400Y-23015400D01*
X245329400Y-23015400D02*
X252064600Y-23015400D01*
X252064600Y-23015400D02*
X258270000Y-16810000D01*
X183504000Y-25700000D02*
X186953000Y-25700000D01*
X180055000Y-25700000D02*
X183504000Y-25700000D01*
X176606000Y-25700000D02*
X180055000Y-25700000D01*
X173158000Y-25700000D02*
X176606000Y-25700000D01*
X169709000Y-25700000D02*
X173158000Y-25700000D01*
%TO.N,c8*%
X197299000Y-25700000D02*
X200748000Y-25700000D01*
%TO.N,Net-(D53-Pad2)*%
X171910000Y-127300000D02*
X176230000Y-127300000D01*
X176230000Y-127300000D02*
X176530000Y-127000000D01*
%TO.N,Net-(D54-Pad2)*%
X171910000Y-146350000D02*
X176230000Y-146350000D01*
X176230000Y-146350000D02*
X176530000Y-146050000D01*
%TO.N,c9*%
X207645000Y-25700000D02*
X211280000Y-25700000D01*
X235410000Y-32050000D02*
X234140000Y-30780000D01*
X234140000Y-30780000D02*
X217485300Y-30780000D01*
X217485300Y-30780000D02*
X212405300Y-25700000D01*
X211280000Y-25700000D02*
X212405300Y-25700000D01*
%TO.N,Net-(D58-Pad2)*%
X190960000Y-108250000D02*
X195280000Y-108250000D01*
X195280000Y-108250000D02*
X195580000Y-107950000D01*
%TO.N,Net-(D59-Pad2)*%
X190960000Y-127300000D02*
X195280000Y-127300000D01*
X195280000Y-127300000D02*
X195580000Y-127000000D01*
%TO.N,Net-(D60-Pad2)*%
X190960000Y-146350000D02*
X195280000Y-146350000D01*
X195280000Y-146350000D02*
X195580000Y-146050000D01*
%TO.N,c10*%
X217991000Y-25700000D02*
X214542000Y-25700000D01*
%TO.N,Net-(D63-Pad2)*%
X210010000Y-89200000D02*
X214330000Y-89200000D01*
X214330000Y-89200000D02*
X214630000Y-88900000D01*
%TO.N,Net-(D64-Pad2)*%
X210010000Y-108250000D02*
X214330000Y-108250000D01*
X214330000Y-108250000D02*
X214630000Y-107950000D01*
%TO.N,Net-(D65-Pad2)*%
X210010000Y-127300000D02*
X214330000Y-127300000D01*
X214330000Y-127300000D02*
X214630000Y-127000000D01*
%TO.N,Net-(D66-Pad2)*%
X210010000Y-146350000D02*
X214330000Y-146350000D01*
X214330000Y-146350000D02*
X214630000Y-146050000D01*
%TO.N,Net-(D68-Pad2)*%
X229060000Y-70150000D02*
X233380000Y-70150000D01*
X233380000Y-70150000D02*
X233680000Y-69850000D01*
%TO.N,Net-(D69-Pad2)*%
X229060000Y-89200000D02*
X233380000Y-89200000D01*
X233380000Y-89200000D02*
X233680000Y-88900000D01*
%TO.N,Net-(D70-Pad2)*%
X229060000Y-108250000D02*
X233380000Y-108250000D01*
X233380000Y-108250000D02*
X233680000Y-107950000D01*
%TO.N,Net-(D71-Pad2)*%
X229060000Y-127300000D02*
X233380000Y-127300000D01*
X233380000Y-127300000D02*
X233680000Y-127000000D01*
%TO.N,Net-(D72-Pad2)*%
X229060000Y-146350000D02*
X233380000Y-146350000D01*
X233380000Y-146350000D02*
X233680000Y-146050000D01*
%TO.N,Net-(D73-Pad2)*%
X248110000Y-51100000D02*
X252430000Y-51100000D01*
X252430000Y-51100000D02*
X252730000Y-50800000D01*
%TO.N,Net-(D74-Pad2)*%
X248110000Y-70150000D02*
X252430000Y-70150000D01*
X252430000Y-70150000D02*
X252730000Y-69850000D01*
%TO.N,Net-(D75-Pad2)*%
X248110000Y-89200000D02*
X252430000Y-89200000D01*
X252430000Y-89200000D02*
X252730000Y-88900000D01*
%TO.N,Net-(D76-Pad2)*%
X248110000Y-108250000D02*
X252430000Y-108250000D01*
X252430000Y-108250000D02*
X252730000Y-107950000D01*
%TO.N,Net-(D77-Pad2)*%
X248110000Y-127300000D02*
X252430000Y-127300000D01*
X252430000Y-127300000D02*
X252730000Y-127000000D01*
%TO.N,Net-(D78-Pad2)*%
X248110000Y-146350000D02*
X252430000Y-146350000D01*
X252430000Y-146350000D02*
X252730000Y-146050000D01*
%TO.N,gnd*%
X209025400Y-19110000D02*
X212930800Y-23015400D01*
X212930800Y-23015400D02*
X231455400Y-23015400D01*
X231455400Y-23015400D02*
X232870000Y-24430000D01*
X209025400Y-19110000D02*
X208412700Y-19110000D01*
X209638000Y-19110000D02*
X209025400Y-19110000D01*
X189504000Y-19110000D02*
X190729300Y-19110000D01*
X190729300Y-19110000D02*
X190729300Y-18650500D01*
X190729300Y-18650500D02*
X192170900Y-17208900D01*
X192170900Y-17208900D02*
X206511600Y-17208900D01*
X206511600Y-17208900D02*
X208412700Y-19110000D01*
%TO.N,Net-(D80-Pad2)*%
X192044000Y-19110000D02*
X196286000Y-19110000D01*
X196286000Y-19110000D02*
X197036000Y-18360000D01*
%TO.N,r1*%
X240030000Y-67310000D02*
X259080000Y-67310000D01*
X220980000Y-67310000D02*
X240030000Y-67310000D01*
X201930000Y-67310000D02*
X220980000Y-67310000D01*
X182880000Y-67310000D02*
X201930000Y-67310000D01*
X163830000Y-67310000D02*
X182880000Y-67310000D01*
X144780000Y-67310000D02*
X163830000Y-67310000D01*
X125730000Y-67310000D02*
X144780000Y-67310000D01*
X106680000Y-67310000D02*
X125730000Y-67310000D01*
X87630000Y-67310000D02*
X106680000Y-67310000D01*
X68580000Y-67310000D02*
X87630000Y-67310000D01*
X49530000Y-67310000D02*
X68580000Y-67310000D01*
X30480000Y-67310000D02*
X49530000Y-67310000D01*
%TO.N,r0*%
X240030000Y-48260000D02*
X259080000Y-48260000D01*
X220980000Y-48260000D02*
X240030000Y-48260000D01*
X201930000Y-48260000D02*
X220980000Y-48260000D01*
X182880000Y-48260000D02*
X201930000Y-48260000D01*
X163830000Y-48260000D02*
X182880000Y-48260000D01*
X144780000Y-48260000D02*
X163830000Y-48260000D01*
X125730000Y-48260000D02*
X144780000Y-48260000D01*
X106680000Y-48260000D02*
X125730000Y-48260000D01*
X87630000Y-48260000D02*
X106680000Y-48260000D01*
X68580000Y-48260000D02*
X87630000Y-48260000D01*
X49530000Y-48260000D02*
X68580000Y-48260000D01*
X30480000Y-48260000D02*
X49530000Y-48260000D01*
%TO.N,r2*%
X240030000Y-86360000D02*
X259080000Y-86360000D01*
X220980000Y-86360000D02*
X240030000Y-86360000D01*
X201930000Y-86360000D02*
X220980000Y-86360000D01*
X182880000Y-86360000D02*
X201930000Y-86360000D01*
X163830000Y-86360000D02*
X182880000Y-86360000D01*
X144780000Y-86360000D02*
X163830000Y-86360000D01*
X125730000Y-86360000D02*
X144780000Y-86360000D01*
X106680000Y-86360000D02*
X125730000Y-86360000D01*
X87630000Y-86360000D02*
X106680000Y-86360000D01*
X68580000Y-86360000D02*
X87630000Y-86360000D01*
X49530000Y-86360000D02*
X68580000Y-86360000D01*
X30480000Y-86360000D02*
X49530000Y-86360000D01*
%TO.N,r3*%
X240030000Y-105410000D02*
X259080000Y-105410000D01*
X220980000Y-105410000D02*
X240030000Y-105410000D01*
X201930000Y-105410000D02*
X220980000Y-105410000D01*
X182880000Y-105410000D02*
X201930000Y-105410000D01*
X163830000Y-105410000D02*
X182880000Y-105410000D01*
X144780000Y-105410000D02*
X163830000Y-105410000D01*
X125730000Y-105410000D02*
X144780000Y-105410000D01*
X106680000Y-105410000D02*
X125730000Y-105410000D01*
X87630000Y-105410000D02*
X106680000Y-105410000D01*
X68580000Y-105410000D02*
X87630000Y-105410000D01*
X49530000Y-105410000D02*
X68580000Y-105410000D01*
X30480000Y-105410000D02*
X49530000Y-105410000D01*
%TO.N,r4*%
X240030000Y-124460000D02*
X259080000Y-124460000D01*
X220980000Y-124460000D02*
X240030000Y-124460000D01*
X201930000Y-124460000D02*
X220980000Y-124460000D01*
X182880000Y-124460000D02*
X201930000Y-124460000D01*
X163830000Y-124460000D02*
X182880000Y-124460000D01*
X144780000Y-124460000D02*
X163830000Y-124460000D01*
X125730000Y-124460000D02*
X144780000Y-124460000D01*
X106680000Y-124460000D02*
X125730000Y-124460000D01*
X87630000Y-124460000D02*
X106680000Y-124460000D01*
X68580000Y-124460000D02*
X87630000Y-124460000D01*
X49530000Y-124460000D02*
X68580000Y-124460000D01*
X30480000Y-124460000D02*
X49530000Y-124460000D01*
%TO.N,r5*%
X240030000Y-143510000D02*
X259080000Y-143510000D01*
X220980000Y-143510000D02*
X240030000Y-143510000D01*
X201930000Y-143510000D02*
X220980000Y-143510000D01*
X182880000Y-143510000D02*
X201930000Y-143510000D01*
X163830000Y-143510000D02*
X182880000Y-143510000D01*
X144780000Y-143510000D02*
X163830000Y-143510000D01*
X125730000Y-143510000D02*
X144780000Y-143510000D01*
X106680000Y-143510000D02*
X125730000Y-143510000D01*
X87630000Y-143510000D02*
X106680000Y-143510000D01*
X68580000Y-143510000D02*
X87630000Y-143510000D01*
X49530000Y-143510000D02*
X68580000Y-143510000D01*
X30480000Y-143510000D02*
X49530000Y-143510000D01*
%TO.N,Net-(D81-Pad2)*%
X212178000Y-19110000D02*
X216420000Y-19110000D01*
X216420000Y-19110000D02*
X217170000Y-18360000D01*
%TO.N,cpp*%
X184522000Y-18360000D02*
X185647300Y-18360000D01*
X185647300Y-18360000D02*
X190190500Y-22903200D01*
X190190500Y-22903200D02*
X193127000Y-22903200D01*
X193127000Y-22903200D02*
X194975400Y-24751600D01*
X194975400Y-24751600D02*
X194975400Y-25529300D01*
X194975400Y-25529300D02*
X201496100Y-32050000D01*
X201496100Y-32050000D02*
X232870000Y-32050000D01*
%TO.N,f90*%
X204656000Y-18360000D02*
X205781300Y-18360000D01*
X205781300Y-18360000D02*
X211004800Y-23583500D01*
X211004800Y-23583500D02*
X226943500Y-23583500D01*
X226943500Y-23583500D02*
X232870000Y-29510000D01*
%TO.N,pwr*%
X224790000Y-18360000D02*
X229340000Y-18360000D01*
X229340000Y-18360000D02*
X232870000Y-21890000D01*
%TD*%
M02*
