M48
; DRILL file {KiCad 5.1.8-5.1.8} date Sat Nov 21 17:42:17 2020
; FORMAT={-:-/ absolute / metric / decimal}
; #@! TF.CreationDate,2020-11-21T17:42:17+00:00
; #@! TF.GenerationSoftware,Kicad,Pcbnew,5.1.8-5.1.8
; #@! TF.FileFunction,NonPlated,1,2,NPTH
FMAT,2
METRIC
T1C4.000
%
G90
G05
T1
X46.99Y-72.39
X199.39Y-53.34
X142.24Y-53.34
X66.04Y-129.54
X218.44Y-148.59
X161.29Y-148.59
X199.39Y-110.49
X180.34Y-110.49
X123.19Y-91.44
X123.19Y-148.59
X237.49Y-129.54
X85.09Y-91.44
X46.99Y-148.59
X66.04Y-53.34
X161.29Y-129.54
X85.09Y-110.49
X218.44Y-72.39
X66.04Y-72.39
X104.14Y-91.44
X256.54Y-110.49
X46.99Y-129.54
X142.24Y-72.39
X104.14Y-72.39
X161.29Y-72.39
X27.94Y-72.39
X256.54Y-72.39
X66.04Y-110.49
X27.94Y-129.54
X199.39Y-129.54
X123.19Y-72.39
X142.24Y-91.44
X142.24Y-110.49
X104.14Y-53.34
X123.19Y-110.49
X180.34Y-148.59
X237.49Y-148.59
X27.94Y-53.34
X142.24Y-148.59
X123.19Y-53.34
X85.09Y-72.39
X123.19Y-129.54
X27.94Y-110.49
X180.34Y-72.39
X85.09Y-129.54
X199.39Y-91.44
X104.14Y-129.54
X199.39Y-148.59
X218.44Y-91.44
X256.54Y-129.54
X237.49Y-72.39
X180.34Y-91.44
X66.04Y-91.44
X161.29Y-110.49
X237.49Y-53.34
X180.34Y-53.34
X66.04Y-148.59
X161.29Y-91.44
X237.49Y-110.49
X256.54Y-53.34
X104.14Y-148.59
X256.54Y-91.44
X46.99Y-91.44
X218.44Y-53.34
X256.54Y-148.59
X85.09Y-53.34
X27.94Y-148.59
X27.94Y-91.44
X104.14Y-110.49
X218.44Y-110.49
X218.44Y-129.54
X142.24Y-129.54
X199.39Y-72.39
X237.49Y-91.44
X161.29Y-53.34
X180.34Y-129.54
X46.99Y-53.34
X85.09Y-148.59
X46.99Y-110.49
T0
M30
