M48
; DRILL file {KiCad 5.1.8-5.1.8} date Sat Nov 21 17:42:17 2020
; FORMAT={-:-/ absolute / metric / decimal}
; #@! TF.CreationDate,2020-11-21T17:42:17+00:00
; #@! TF.GenerationSoftware,Kicad,Pcbnew,5.1.8-5.1.8
; #@! TF.FileFunction,Plated,1,2,PTH
FMAT,2
METRIC
T1C0.800
T2C0.900
T3C1.100
T4C1.500
%
G90
G05
T1
X100.734Y-23.16
X100.734Y-30.78
X97.285Y-23.16
X97.285Y-30.78
X248.11Y-70.15
X248.11Y-77.77
X217.991Y-25.7
X217.991Y-33.32
X66.247Y-21.89
X66.247Y-29.51
X221.44Y-25.7
X221.44Y-33.32
X104.183Y-23.16
X104.183Y-30.78
X211.28Y-25.7
X211.28Y-33.32
X210.01Y-108.25
X210.01Y-115.87
X248.11Y-89.2
X248.11Y-96.82
X38.657Y-16.81
X38.657Y-24.43
X135.221Y-23.16
X135.221Y-30.78
X45.554Y-19.35
X45.554Y-26.97
X35.208Y-16.81
X35.208Y-24.43
X93.837Y-23.16
X93.837Y-30.78
X52.452Y-19.35
X52.452Y-26.97
X186.953Y-25.7
X186.953Y-33.32
X117.978Y-25.7
X117.978Y-33.32
X248.11Y-51.1
X248.11Y-58.72
X210.01Y-127.3
X210.01Y-134.92
X111.08Y-25.7
X111.08Y-33.32
X176.902Y-18.36
X184.522Y-18.36
X204.196Y-25.7
X204.196Y-33.32
X55.901Y-19.35
X55.901Y-26.97
X131.773Y-23.16
X131.773Y-30.78
X162.811Y-19.35
X162.811Y-26.97
X210.01Y-89.2
X210.01Y-96.82
X169.709Y-25.7
X169.709Y-33.32
X190.96Y-146.35
X190.96Y-153.97
X248.11Y-146.35
X248.11Y-153.97
X229.06Y-108.25
X229.06Y-115.87
X166.26Y-19.35
X166.26Y-26.97
X124.875Y-25.7
X124.875Y-33.32
X83.49Y-21.89
X83.49Y-29.51
X248.11Y-127.3
X248.11Y-134.92
X190.96Y-127.3
X190.96Y-134.92
X171.91Y-146.35
X171.91Y-153.97
X193.85Y-25.7
X193.85Y-33.32
X24.862Y-16.81
X24.862Y-24.43
X76.593Y-21.89
X76.593Y-29.51
X217.17Y-18.36
X224.79Y-18.36
X214.542Y-25.7
X214.542Y-33.32
X248.11Y-108.25
X248.11Y-115.87
X121.427Y-25.7
X121.427Y-33.32
X86.939Y-23.16
X86.939Y-30.78
X190.401Y-25.7
X190.401Y-33.32
X171.91Y-127.3
X171.91Y-134.92
X152.465Y-19.35
X152.465Y-26.97
X149.016Y-19.35
X149.016Y-26.97
X49.003Y-19.35
X49.003Y-26.97
X159.363Y-19.35
X159.363Y-26.97
X138.67Y-23.16
X138.67Y-30.78
X107.632Y-25.7
X107.632Y-33.32
X128.324Y-23.16
X128.324Y-30.78
X229.06Y-146.35
X229.06Y-153.97
X114.529Y-25.7
X114.529Y-33.32
X200.748Y-25.7
X200.748Y-33.32
X190.96Y-108.25
X190.96Y-115.87
X28.31Y-16.81
X28.31Y-24.43
X142.119Y-23.16
X142.119Y-30.78
X180.055Y-25.7
X180.055Y-33.32
X207.645Y-25.7
X207.645Y-33.32
X173.158Y-25.7
X173.158Y-33.32
X229.06Y-70.15
X229.06Y-77.77
X59.349Y-19.35
X59.349Y-26.97
X155.914Y-19.35
X155.914Y-26.97
X210.01Y-146.35
X210.01Y-153.97
X229.06Y-127.3
X229.06Y-134.92
X73.144Y-21.89
X73.144Y-29.51
X176.606Y-25.7
X176.606Y-33.32
X229.06Y-89.2
X229.06Y-96.82
X42.105Y-16.81
X42.105Y-24.43
X183.504Y-25.7
X183.504Y-33.32
X69.695Y-21.89
X69.695Y-29.51
X197.299Y-25.7
X197.299Y-33.32
X90.388Y-23.16
X90.388Y-30.78
X62.798Y-19.35
X62.798Y-26.97
X31.759Y-16.81
X31.759Y-24.43
X80.042Y-21.89
X80.042Y-29.51
X197.036Y-18.36
X204.656Y-18.36
X145.568Y-23.16
X145.568Y-30.78
T2
X169.37Y-19.11
X171.91Y-19.11
X209.638Y-19.11
X212.178Y-19.11
X189.504Y-19.11
X192.044Y-19.11
T3
X232.87Y-16.81
X232.87Y-19.35
X232.87Y-21.89
X232.87Y-24.43
X232.87Y-26.97
X232.87Y-29.51
X232.87Y-32.05
X235.41Y-16.81
X235.41Y-32.05
X237.95Y-16.81
X237.95Y-32.05
X240.49Y-16.81
X240.49Y-32.05
X243.03Y-16.81
X243.03Y-32.05
X245.57Y-16.81
X245.57Y-32.05
X248.11Y-16.81
X248.11Y-32.05
X250.65Y-16.81
X250.65Y-19.35
X250.65Y-29.51
X250.65Y-32.05
X253.19Y-16.81
X253.19Y-32.05
X255.73Y-16.81
X255.73Y-32.05
X258.27Y-16.81
X258.27Y-32.05
X260.81Y-16.81
X260.81Y-32.05
T4
X214.63Y-107.95
X220.98Y-105.41
X214.63Y-127.0
X220.98Y-124.46
X138.43Y-127.0
X144.78Y-124.46
X195.58Y-69.85
X201.93Y-67.31
X233.68Y-88.9
X240.03Y-86.36
X157.48Y-50.8
X163.83Y-48.26
X176.53Y-127.0
X182.88Y-124.46
X43.18Y-50.8
X49.53Y-48.26
X81.28Y-146.05
X87.63Y-143.51
X43.18Y-107.95
X49.53Y-105.41
X43.18Y-69.85
X49.53Y-67.31
X195.58Y-50.8
X201.93Y-48.26
X138.43Y-50.8
X144.78Y-48.26
X62.23Y-127.0
X68.58Y-124.46
X214.63Y-146.05
X220.98Y-143.51
X157.48Y-146.05
X163.83Y-143.51
X195.58Y-107.95
X201.93Y-105.41
X176.53Y-107.95
X182.88Y-105.41
X119.38Y-88.9
X125.73Y-86.36
X119.38Y-146.05
X125.73Y-143.51
X233.68Y-127.0
X240.03Y-124.46
X81.28Y-88.9
X87.63Y-86.36
X43.18Y-146.05
X49.53Y-143.51
X62.23Y-50.8
X68.58Y-48.26
X157.48Y-127.0
X163.83Y-124.46
X81.28Y-107.95
X87.63Y-105.41
X214.63Y-69.85
X220.98Y-67.31
X62.23Y-69.85
X68.58Y-67.31
X100.33Y-88.9
X106.68Y-86.36
X252.73Y-107.95
X259.08Y-105.41
X43.18Y-127.0
X49.53Y-124.46
X138.43Y-69.85
X144.78Y-67.31
X100.33Y-69.85
X106.68Y-67.31
X157.48Y-69.85
X163.83Y-67.31
X24.13Y-69.85
X30.48Y-67.31
X252.73Y-69.85
X259.08Y-67.31
X62.23Y-107.95
X68.58Y-105.41
X24.13Y-127.0
X30.48Y-124.46
X195.58Y-127.0
X201.93Y-124.46
X119.38Y-69.85
X125.73Y-67.31
X138.43Y-88.9
X144.78Y-86.36
X138.43Y-107.95
X144.78Y-105.41
X100.33Y-50.8
X106.68Y-48.26
X119.38Y-107.95
X125.73Y-105.41
X176.53Y-146.05
X182.88Y-143.51
X233.68Y-146.05
X240.03Y-143.51
X24.13Y-50.8
X30.48Y-48.26
X138.43Y-146.05
X144.78Y-143.51
X119.38Y-50.8
X125.73Y-48.26
X81.28Y-69.85
X87.63Y-67.31
X119.38Y-127.0
X125.73Y-124.46
X24.13Y-107.95
X30.48Y-105.41
X176.53Y-69.85
X182.88Y-67.31
X81.28Y-127.0
X87.63Y-124.46
X195.58Y-88.9
X201.93Y-86.36
X100.33Y-127.0
X106.68Y-124.46
X195.58Y-146.05
X201.93Y-143.51
X214.63Y-88.9
X220.98Y-86.36
X252.73Y-127.0
X259.08Y-124.46
X233.68Y-69.85
X240.03Y-67.31
X176.53Y-88.9
X182.88Y-86.36
X62.23Y-88.9
X68.58Y-86.36
X157.48Y-107.95
X163.83Y-105.41
X233.68Y-50.8
X240.03Y-48.26
X176.53Y-50.8
X182.88Y-48.26
X62.23Y-146.05
X68.58Y-143.51
X157.48Y-88.9
X163.83Y-86.36
X233.68Y-107.95
X240.03Y-105.41
X252.73Y-50.8
X259.08Y-48.26
X100.33Y-146.05
X106.68Y-143.51
X252.73Y-88.9
X259.08Y-86.36
X43.18Y-88.9
X49.53Y-86.36
X214.63Y-50.8
X220.98Y-48.26
X252.73Y-146.05
X259.08Y-143.51
X81.28Y-50.8
X87.63Y-48.26
X24.13Y-146.05
X30.48Y-143.51
X24.13Y-88.9
X30.48Y-86.36
X100.33Y-107.95
X106.68Y-105.41
T0
M30
